<svg width="50" height="45" viewBox="0 0 50 45" fill="none" xmlns="http://www.w3.org/2000/svg">
<rect width="49.6" height="45" rx="10" fill="url(#paint0_radial_12_1506)"/>
<path d="M25.65 24.2H22.25C22.0246 24.2 21.8084 24.2896 21.649 24.449C21.4896 24.6084 21.4 24.8246 21.4 25.05C21.4 25.2754 21.4896 25.4916 21.649 25.651C21.8084 25.8104 22.0246 25.9 22.25 25.9H25.65C25.8754 25.9 26.0916 25.8104 26.251 25.651C26.4104 25.4916 26.5 25.2754 26.5 25.05C26.5 24.8246 26.4104 24.6084 26.251 24.449C26.0916 24.2896 25.8754 24.2 25.65 24.2ZM29.05 15.7H28.047C27.8716 15.204 27.5471 14.7743 27.118 14.47C26.6889 14.1656 26.1761 14.0015 25.65 14H23.95C23.4239 14.0015 22.9111 14.1656 22.482 14.47C22.0529 14.7743 21.7284 15.204 21.553 15.7H20.55C19.8737 15.7 19.2251 15.9687 18.7469 16.4469C18.2687 16.9251 18 17.5737 18 18.25V28.45C18 29.1263 18.2687 29.7749 18.7469 30.2531C19.2251 30.7313 19.8737 31 20.55 31H29.05C29.7263 31 30.3749 30.7313 30.8531 30.2531C31.3313 29.7749 31.6 29.1263 31.6 28.45V18.25C31.6 17.5737 31.3313 16.9251 30.8531 16.4469C30.3749 15.9687 29.7263 15.7 29.05 15.7V15.7ZM23.1 16.55C23.1 16.3246 23.1896 16.1084 23.349 15.949C23.5084 15.7896 23.7246 15.7 23.95 15.7H25.65C25.8754 15.7 26.0916 15.7896 26.251 15.949C26.4104 16.1084 26.5 16.3246 26.5 16.55V17.4H23.1V16.55ZM29.9 28.45C29.9 28.6754 29.8104 28.8916 29.651 29.051C29.4916 29.2104 29.2754 29.3 29.05 29.3H20.55C20.3246 29.3 20.1084 29.2104 19.949 29.051C19.7896 28.8916 19.7 28.6754 19.7 28.45V18.25C19.7 18.0246 19.7896 17.8084 19.949 17.649C20.1084 17.4896 20.3246 17.4 20.55 17.4H21.4V18.25C21.4 18.4754 21.4896 18.6916 21.649 18.851C21.8084 19.0104 22.0246 19.1 22.25 19.1H27.35C27.5754 19.1 27.7916 19.0104 27.951 18.851C28.1104 18.6916 28.2 18.4754 28.2 18.25V17.4H29.05C29.2754 17.4 29.4916 17.4896 29.651 17.649C29.8104 17.8084 29.9 18.0246 29.9 18.25V28.45ZM27.35 20.8H22.25C22.0246 20.8 21.8084 20.8896 21.649 21.049C21.4896 21.2084 21.4 21.4246 21.4 21.65C21.4 21.8754 21.4896 22.0916 21.649 22.251C21.8084 22.4104 22.0246 22.5 22.25 22.5H27.35C27.5754 22.5 27.7916 22.4104 27.951 22.251C28.1104 22.0916 28.2 21.8754 28.2 21.65C28.2 21.4246 28.1104 21.2084 27.951 21.049C27.7916 20.8896 27.5754 20.8 27.35 20.8Z" fill="white"/>
<defs>
<radialGradient id="paint0_radial_12_1506" cx="0" cy="0" r="1" gradientUnits="userSpaceOnUse" gradientTransform="translate(3.5 2.5) rotate(63.3811) scale(47.5388 52.3983)">
<stop stop-color="#2AA4FC"/>
<stop offset="1" stop-color="#1F41B8" stop-opacity="0.81"/>
</radialGradient>
</defs>
</svg>
