<svg width="51" height="46" viewBox="0 0 51 46" fill="none" xmlns="http://www.w3.org/2000/svg">
<rect width="50.1209" height="46.0005" rx="10" fill="url(#paint0_radial_12_1595)"/>
<path d="M21.5 30C21.2033 30 20.9133 30.088 20.6666 30.2528C20.42 30.4176 20.2277 30.6519 20.1142 30.926C20.0006 31.2001 19.9709 31.5017 20.0288 31.7926C20.0867 32.0836 20.2296 32.3509 20.4393 32.5607C20.6491 32.7704 20.9164 32.9133 21.2074 32.9712C21.4983 33.0291 21.7999 32.9993 22.074 32.8858C22.3481 32.7723 22.5824 32.58 22.7472 32.3334C22.912 32.0867 23 31.7967 23 31.5C23 31.1022 22.842 30.7206 22.5607 30.4393C22.2794 30.158 21.8978 30 21.5 30ZM32 27H20C19.7348 27 19.4804 26.8946 19.2929 26.7071C19.1054 26.5196 19 26.2652 19 26C19 25.7348 19.1054 25.4804 19.2929 25.2929C19.4804 25.1054 19.7348 25 20 25H28.4912C29.1426 24.9979 29.7758 24.7847 30.2959 24.3925C30.816 24.0002 31.195 23.45 31.376 22.8242L32.9614 17.2749C33.004 17.1261 33.0114 16.9694 32.9831 16.8172C32.9548 16.665 32.8915 16.5215 32.7983 16.3979C32.7051 16.2743 32.5845 16.1741 32.446 16.105C32.3075 16.036 32.1548 16 32 16H19.7391C19.5321 15.4174 19.1504 14.9127 18.6462 14.5548C18.142 14.1969 17.5397 14.0032 16.9214 14H16C15.7348 14 15.4804 14.1054 15.2929 14.2929C15.1054 14.4804 15 14.7348 15 15C15 15.2652 15.1054 15.5196 15.2929 15.7071C15.4804 15.8946 15.7348 16 16 16H16.9214C17.1385 16.0008 17.3495 16.0718 17.5228 16.2025C17.6961 16.3332 17.8224 16.5166 17.8828 16.7251L18.0383 17.2698L18.0386 17.2749L19.6792 23.0171C18.9158 23.0992 18.2129 23.4709 17.7153 24.0557C17.2177 24.6405 16.9632 25.3938 17.0043 26.1606C17.0454 26.9273 17.379 27.6491 17.9363 28.1773C18.4935 28.7055 19.2322 29 20 29H32C32.2652 29 32.5196 28.8946 32.7071 28.7071C32.8946 28.5196 33 28.2652 33 28C33 27.7348 32.8946 27.4804 32.7071 27.2929C32.5196 27.1054 32.2652 27 32 27ZM30.6743 18L29.4531 22.2744C29.3928 22.4831 29.2664 22.6666 29.093 22.7974C28.9196 22.9282 28.7084 22.9993 28.4912 23H21.7544L21.4994 22.1078L20.3264 18H30.6743ZM29.5 30C29.2033 30 28.9133 30.088 28.6666 30.2528C28.42 30.4176 28.2277 30.6519 28.1142 30.926C28.0006 31.2001 27.9709 31.5017 28.0288 31.7926C28.0867 32.0836 28.2296 32.3509 28.4393 32.5607C28.6491 32.7704 28.9164 32.9133 29.2074 32.9712C29.4983 33.0291 29.7999 32.9993 30.074 32.8858C30.3481 32.7723 30.5824 32.58 30.7472 32.3334C30.912 32.0867 31 31.7967 31 31.5C31 31.1022 30.842 30.7206 30.5607 30.4393C30.2794 30.158 29.8978 30 29.5 30Z" fill="white"/>
<defs>
<radialGradient id="paint0_radial_12_1595" cx="0" cy="0" r="1" gradientUnits="userSpaceOnUse" gradientTransform="translate(-3.00656 3.49915) rotate(34.8006) scale(74.4491 80.8531)">
<stop stop-color="#59F973"/>
<stop offset="1" stop-color="#09955A"/>
</radialGradient>
</defs>
</svg>
