<svg width="51" height="47" viewBox="0 0 51 47" fill="none" xmlns="http://www.w3.org/2000/svg">
<rect width="50.0116" height="46.0116" rx="10" fill="url(#paint0_radial_12_1505)"/>
<path d="M34.7158 18.2958C34.6228 18.2021 34.5122 18.1277 34.3904 18.0769C34.2685 18.0261 34.1378 18 34.0058 18C33.8738 18 33.7431 18.0261 33.6212 18.0769C33.4994 18.1277 33.3888 18.2021 33.2958 18.2958L27.0058 24.5958L22.7158 20.2958C22.6228 20.2021 22.5122 20.1277 22.3904 20.0769C22.2685 20.0261 22.1378 20 22.0058 20C21.8738 20 21.7431 20.0261 21.6212 20.0769C21.4994 20.1277 21.3888 20.2021 21.2958 20.2958L15.2958 26.2958C15.2021 26.3888 15.1277 26.4994 15.0769 26.6212C15.0261 26.7431 15 26.8738 15 27.0058C15 27.1378 15.0261 27.2685 15.0769 27.3904C15.1277 27.5122 15.2021 27.6228 15.2958 27.7158C15.3888 27.8095 15.4994 27.8839 15.6212 27.9347C15.7431 27.9855 15.8738 28.0116 16.0058 28.0116C16.1378 28.0116 16.2685 27.9855 16.3904 27.9347C16.5122 27.8839 16.6228 27.8095 16.7158 27.7158L22.0058 22.4158L26.2958 26.7158C26.3888 26.8095 26.4994 26.8839 26.6212 26.9347C26.7431 26.9855 26.8738 27.0116 27.0058 27.0116C27.1378 27.0116 27.2685 26.9855 27.3904 26.9347C27.5122 26.8839 27.6228 26.8095 27.7158 26.7158L34.7158 19.7158C34.8095 19.6228 34.8839 19.5122 34.9347 19.3904C34.9855 19.2685 35.0116 19.1378 35.0116 19.0058C35.0116 18.8738 34.9855 18.7431 34.9347 18.6212C34.8839 18.4994 34.8095 18.3888 34.7158 18.2958V18.2958Z" fill="white"/>
<defs>
<radialGradient id="paint0_radial_12_1505" cx="0" cy="0" r="1" gradientUnits="userSpaceOnUse" gradientTransform="translate(-3 3.5) rotate(34.8657) scale(74.3455 80.8087)">
<stop stop-color="#FFC633"/>
<stop offset="1" stop-color="#CE3E11"/>
</radialGradient>
</defs>
</svg>
