<svg width="51" height="46" viewBox="0 0 51 46" fill="none" xmlns="http://www.w3.org/2000/svg">
<rect width="50.1209" height="46.0005" rx="10" fill="url(#paint0_radial_12_1518)"/>
<path d="M25.0181 13.0005C23.486 12.9978 21.9737 13.3471 20.598 14.0215C19.2223 14.6959 18.02 15.6774 17.0839 16.8903C16.1477 18.1031 15.5028 19.5149 15.1988 21.0165C14.8948 22.5182 14.94 24.0696 15.3307 25.551C15.7215 27.0325 16.4475 28.4043 17.4525 29.5607C18.4576 30.717 19.715 31.627 21.1276 32.2203C22.5401 32.8136 24.0702 33.0744 25.5995 32.9825C27.1289 32.8907 28.6167 32.4486 29.9481 31.6905H30.0181H30.0681C31.9934 30.5945 33.5002 28.8903 34.352 26.8453C35.2039 24.8002 35.3526 22.5302 34.7747 20.3916C34.1968 18.2529 32.9252 16.3667 31.1593 15.0289C29.3934 13.6912 27.2333 12.9778 25.0181 13.0005V13.0005ZM26.0181 15.0705C27.7781 15.2937 29.414 16.0956 30.6685 17.3501C31.923 18.6046 32.7249 20.2405 32.9481 22.0005H26.0181V15.0705ZM25.0181 31.0005C22.9926 30.9867 21.0478 30.2051 19.576 28.8134C18.1043 27.4217 17.2153 25.5235 17.0884 23.5019C16.9615 21.4804 17.6061 19.4859 18.8923 17.9211C20.1784 16.3563 22.0102 15.3375 24.0181 15.0705V23.0005C24.022 23.1202 24.0457 23.2385 24.0881 23.3505V23.4305V23.5005L28.0881 30.3705C27.1178 30.7858 26.0735 31.0001 25.0181 31.0005V31.0005ZM29.8481 29.3605L26.7481 24.0005H32.9481C32.8135 25.0551 32.47 26.0723 31.9377 26.9926C31.4054 27.9129 30.695 28.7179 29.8481 29.3605Z" fill="white"/>
<defs>
<radialGradient id="paint0_radial_12_1518" cx="0" cy="0" r="1" gradientUnits="userSpaceOnUse" gradientTransform="translate(-3.00656 3.49915) rotate(34.8006) scale(74.4491 80.8531)">
<stop stop-color="#B159F9"/>
<stop offset="1" stop-color="#5024DC"/>
</radialGradient>
</defs>
</svg>
