<svg width="52" height="52" viewBox="0 0 52 52" fill="none" xmlns="http://www.w3.org/2000/svg">
<path d="M26 49.1111C22.1691 49.1111 18.4951 47.5893 15.7862 44.8804C13.0774 42.1716 11.5555 38.4976 11.5555 34.6667V17.3333C11.5555 13.5024 13.0774 9.82843 15.7862 7.11957C18.4951 4.41071 22.1691 2.88889 26 2.88889C29.8309 2.88889 33.5049 4.41071 36.2138 7.11957C38.9226 9.82843 40.4444 13.5024 40.4444 17.3333V34.6667C40.4444 36.5635 40.0708 38.4418 39.3449 40.1943C38.619 41.9468 37.555 43.5391 36.2138 44.8804C34.8725 46.2217 33.2801 47.2857 31.5276 48.0116C29.7752 48.7375 27.8969 49.1111 26 49.1111ZM26 5.77778C22.9353 5.77778 19.9961 6.99524 17.829 9.16232C15.6619 11.3294 14.4444 14.2686 14.4444 17.3333V34.6667C14.4444 37.7314 15.6619 40.6706 17.829 42.8377C19.9961 45.0048 22.9353 46.2222 26 46.2222C29.0647 46.2222 32.0039 45.0048 34.171 42.8377C36.3381 40.6706 37.5555 37.7314 37.5555 34.6667V17.3333C37.5555 14.2686 36.3381 11.3294 34.171 9.16232C32.0039 6.99524 29.0647 5.77778 26 5.77778Z" fill="url(#paint0_radial_22_6197)"/>
<path d="M26 21.6667C25.6169 21.6667 25.2495 21.5145 24.9786 21.2436C24.7077 20.9727 24.5555 20.6053 24.5555 20.2222V14.4444C24.5555 14.0614 24.7077 13.694 24.9786 13.4231C25.2495 13.1522 25.6169 13 26 13C26.3831 13 26.7505 13.1522 27.0214 13.4231C27.2922 13.694 27.4444 14.0614 27.4444 14.4444V20.2222C27.4444 20.6053 27.2922 20.9727 27.0214 21.2436C26.7505 21.5145 26.3831 21.6667 26 21.6667Z" fill="#AE868B"/>
<defs>
<radialGradient id="paint0_radial_22_6197" cx="0" cy="0" r="1" gradientUnits="userSpaceOnUse" gradientTransform="translate(23 -0.500027) rotate(87.0643) scale(58.5769 36.6105)">
<stop stop-color="#0BB0D1"/>
<stop offset="0.555208" stop-color="#C8A6EB"/>
<stop offset="0.982292" stop-color="#FF4004"/>
</radialGradient>
</defs>
</svg>
