<svg width="227" height="207" viewBox="0 0 227 207" fill="none" xmlns="http://www.w3.org/2000/svg">
<path d="M185.085 86.1538C185.085 133.735 146.512 172.307 98.9316 172.307C51.3502 172.307 12.778 133.735 12.778 86.1538C12.778 38.5724 51.3502 3.58487e-05 98.9316 3.58487e-05C146.512 3.58487e-05 185.085 38.5724 185.085 86.1538" fill="#9EDED6"/>
<path d="M111.369 118.017C111.369 118.017 87.3541 147.161 78.86 146.402C70.3659 145.642 64.5454 131.437 64.5454 131.437C64.5454 131.437 64.8367 131.281 65.3308 130.984C67.8172 129.518 75.4634 124.659 77.2527 119.473C78.9848 116.659 91.5829 96.2332 95.4164 91.0212C99.5412 85.4192 104.394 85.2008 104.394 85.2008C107.13 89.7001 110.584 93.1227 114.865 93.7676C115.453 93.8556 116.025 93.9133 116.571 93.9393C116.831 95.7702 118.553 105.112 126.943 109.892C126.943 109.892 127.265 103.385 131.567 102.807C131.567 102.807 136.124 100.311 139.884 103.962C139.884 103.962 145.845 97.5642 139.884 79.5987L135.629 75.7491L135.625 75.7444L133.674 71.1046C133.674 71.1046 155.442 70.017 160.477 74.6833C165.513 79.3438 197.72 121.965 197.72 121.965L150.87 158.339C150.87 158.339 122.464 130.168 111.369 118.017" fill="white"/>
<path d="M139.884 79.5988C145.845 97.5643 139.884 103.962 139.884 103.962C136.124 100.311 131.567 102.807 131.567 102.807L137.642 80.5351L135.629 75.7491L139.884 79.5988" fill="#CFEEE3"/>
<path d="M125.268 98.652L131.567 102.807C127.265 103.385 126.943 109.892 126.943 109.892C118.553 105.112 116.831 95.7703 116.571 93.9394C117.101 93.9649 117.616 93.9602 118.105 93.929L125.268 98.652" fill="#CFEEE3"/>
<path d="M111.224 117.783C108.603 114.549 105.983 111.314 103.362 108.08C103.151 107.82 102.785 108.19 102.994 108.447C105.615 111.682 108.236 114.917 110.856 118.15C111.067 118.41 111.433 118.041 111.224 117.783Z" fill="#252936"/>
<path d="M108.927 118.42C107.072 117.623 105.217 116.828 103.362 116.031C103.057 115.9 102.792 116.348 103.099 116.48C104.954 117.276 106.81 118.073 108.665 118.869C108.969 118.999 109.234 118.551 108.927 118.42Z" fill="#252936"/>
<path d="M150.34 133.256C147.981 129.353 145.622 125.451 143.263 121.55C140.915 117.666 138.568 113.782 136.22 109.899C134.89 107.698 133.559 105.498 132.229 103.297C132.056 103.011 131.606 103.272 131.78 103.56C134.139 107.462 136.497 111.363 138.856 115.266C141.204 119.148 143.552 123.032 145.9 126.916C147.23 129.117 148.56 131.317 149.89 133.517C150.064 133.804 150.514 133.543 150.34 133.256Z" fill="#252936"/>
<path d="M77.6324 117.554C77.6064 118.193 77.4764 118.834 77.2527 119.473C75.4634 124.659 67.8172 129.518 65.3308 130.984L64.5454 128.108C64.5454 128.108 60.5142 129.013 57.565 126.459C57.4869 126.61 57.3621 126.745 57.2165 126.839C56.8003 127.094 56.275 127.094 55.786 127.052C53.5754 126.855 51.422 126.007 49.6691 124.638C48.634 123.832 47.7029 122.787 47.4168 121.507C47.1411 120.295 47.6041 118.855 48.6808 118.261C48.6392 118.069 48.6132 117.871 48.6028 117.673C48.5559 116.545 49.1489 115.463 49.9552 114.673C50.699 113.934 51.6196 113.408 52.5403 112.909C52.5507 112.862 52.5611 112.82 52.5715 112.779C52.7952 111.978 53.3673 111.312 54.0331 110.818C54.6365 110.37 55.3231 110.048 56.0097 109.736C52.6755 108.02 49.4766 106.116 49.7991 105.263C50.4493 103.531 57.2789 104.145 64.1865 106.563C71.0889 108.987 73.3464 112.597 73.3464 112.597C75.4946 111.645 77.8457 111.833 77.6324 117.554" fill="#F68164"/>
<path d="M75.1014 118.528C73.492 119.219 71.8821 119.909 70.2728 120.6C69.4582 120.949 68.6432 121.299 67.8286 121.648C67.1592 121.936 66.3436 122.404 65.592 122.172C64.7826 121.921 64.7738 121.014 65.0838 120.365C65.3943 119.716 65.8786 119.124 66.3269 118.565C67.2117 117.462 68.212 116.452 69.3027 115.553C70.5688 114.51 71.9633 113.629 73.4405 112.918C73.7422 112.773 73.4785 112.324 73.1778 112.469C70.3227 113.844 67.7865 115.871 65.8271 118.364C65.0624 119.336 63.6221 121.05 64.7696 122.268C65.2934 122.823 66.135 122.825 66.8153 122.615C67.6596 122.354 68.472 121.934 69.2835 121.587C71.3105 120.716 73.337 119.847 75.364 118.977C75.6704 118.845 75.4062 118.397 75.1014 118.528" fill="#252936"/>
<path d="M62.4133 113.335C60.3951 112.13 58.3769 110.925 56.3592 109.72C56.0711 109.548 55.8094 109.998 56.0966 110.17L62.1506 113.784C62.4388 113.956 62.7004 113.507 62.4133 113.335" fill="#252936"/>
<path d="M63.3547 123.079C63.2996 122.587 63.077 122.133 62.8882 121.681C62.6806 121.184 62.4726 120.687 62.265 120.19C61.31 117.905 60.355 115.619 59.3995 113.334C59.2726 113.029 58.7691 113.163 58.8981 113.472C59.6705 115.32 60.4429 117.169 61.2153 119.017C61.6055 119.951 61.9961 120.885 62.3862 121.819C62.6234 122.386 63.3526 123.878 62.3004 124.119C61.5628 124.288 60.702 123.551 60.1423 123.157C59.4957 122.702 58.8809 122.204 58.2983 121.67C57.1415 120.608 56.1163 119.406 55.2539 118.094C54.2791 116.611 53.5166 114.999 52.9928 113.304C52.894 112.985 52.392 113.121 52.4908 113.442C53.5046 116.723 55.3995 119.715 57.9306 122.037C58.5454 122.601 59.1977 123.126 59.8801 123.606C60.5272 124.062 61.3027 124.669 62.1365 124.656C62.987 124.643 63.4432 123.863 63.3547 123.079" fill="#252936"/>
<path d="M58.984 123.352C58.7848 123.088 58.3328 123.347 58.5351 123.614C58.8872 124.081 58.9221 124.715 58.5091 125.159C58.0997 125.6 57.4911 125.605 56.9674 125.373C56.4342 125.138 55.9681 124.741 55.513 124.384C55.0392 124.012 54.5736 123.629 54.1174 123.235C52.3063 121.673 50.6413 119.947 49.1385 118.086C48.9279 117.826 48.5622 118.196 48.7708 118.454C50.1513 120.163 51.6686 121.759 53.3112 123.219C54.1112 123.93 54.9393 124.612 55.7965 125.254C56.5497 125.817 57.5338 126.355 58.4597 125.848C59.3595 125.357 59.5983 124.164 58.984 123.352" fill="#252936"/>
<path d="M137.642 80.5351L131.567 102.807L125.268 98.652C131.749 89.4448 130.485 78.5112 130.485 78.5112C130.485 78.5112 129.476 93.2372 118.105 93.929C117.616 93.9602 117.102 93.9649 116.571 93.9394C116.025 93.9129 115.453 93.8557 114.865 93.7678C110.584 93.1228 107.13 89.7002 104.394 85.2004C98.9586 76.2647 96.3319 63.1043 95.6193 59.0627C102.022 58.2253 108.243 55.5366 114.319 53.1122C116.196 52.3632 118.179 51.6199 120.191 51.843C122.251 52.0672 124.098 53.2943 125.482 54.8396C126.693 56.1972 127.598 57.7889 128.452 59.3956C128.691 57.9293 129.684 53.5289 133.013 54.798C133.398 54.9431 133.741 55.1777 134.038 55.4737C136.8 58.2622 135.785 66.917 132.654 68.6809L133.674 71.1048L135.625 75.7445L135.629 75.7492L137.642 80.5351" fill="#F68164"/>
<path d="M130.485 78.5112C130.485 78.5112 131.749 89.4448 125.268 98.652L118.105 93.929C129.476 93.2372 130.485 78.5112 130.485 78.5112Z" fill="#252936"/>
<path d="M122.433 34.8502C119.947 33.955 117.159 34.5376 114.735 35.5883C112.311 36.6343 110.095 38.122 107.661 39.1362C103.213 40.9771 98.0951 41.1383 93.549 39.5732C91.8637 38.9901 90.0224 38.1786 88.3839 38.8762C87.1137 39.4166 86.4073 40.7487 86.2721 42.1469C86.2715 41.8327 86.2872 41.5196 86.3397 41.2101C86.4807 40.3773 86.8468 39.5831 87.5111 39.0411C88.2304 38.4543 89.1948 38.253 90.1035 38.2588C91.1761 38.2655 92.2179 38.5682 93.2437 38.8502C94.2424 39.1248 95.2462 39.3537 96.2741 39.491C100.263 40.0236 104.391 39.3448 107.99 37.5456C111.681 35.7007 115.058 32.611 119.383 32.4731C121.318 32.4117 123.18 33.0859 124.53 34.4908C125.894 35.9077 126.527 37.9019 126.263 39.8489C126.254 39.916 126.235 39.9815 126.223 40.0481C126.32 37.8301 124.59 35.632 122.433 34.8502V34.8502ZM133.476 47.609C133.169 45.6538 132.69 43.6194 131.385 42.1323C130.215 40.8044 128.193 40.098 126.607 40.7518C127.062 39.0057 126.841 37.0962 125.945 35.5191C125.02 33.8926 123.431 32.664 121.619 32.1922C117.209 31.0437 113.181 33.9462 109.599 36.0648C107.685 37.1971 105.687 38.1043 103.516 38.6177C101.401 39.1175 99.2056 39.2658 97.0418 39.0593C95.9422 38.9542 94.8577 38.7461 93.7909 38.46C92.7261 38.175 91.664 37.8447 90.5592 37.7578C88.7241 37.6132 86.8536 38.3082 86.115 40.1022C85.4268 41.7734 85.7805 43.724 86.4505 45.3406C86.9207 46.4766 87.5875 47.5242 88.4068 48.436C86.4073 48.228 84.2934 49.2506 83.2916 51.0061C82.1577 52.9926 82.5582 55.7291 84.2123 57.3104C85.6427 58.6783 87.7129 59.1148 89.6843 59.2609C91.6817 59.4118 93.6582 59.3228 95.6192 59.0627C102.022 58.2253 108.243 55.5366 114.319 53.1122C116.196 52.3632 118.179 51.6199 120.192 51.843C122.251 52.0672 124.097 53.2943 125.482 54.8396C126.694 56.1972 127.598 57.7889 128.452 59.3956C128.691 57.9293 129.684 53.5288 133.013 54.798C133.398 54.9431 133.741 55.1777 134.038 55.4737C134.074 52.8474 133.887 50.2098 133.476 47.609" fill="#252936"/>
<path d="M122.532 78.6884C122.532 78.6884 125.424 83.9727 121.013 87.0416C116.602 90.1162 113.492 85.7516 113.492 85.7516L122.532 78.6884Z" fill="white"/>
<path d="M107.494 69.1125L113.492 81.0448C113.492 81.0448 108.613 83.7907 107.494 82.1995C106.371 80.6079 107.494 69.1125 107.494 69.1125Z" fill="#F36254"/>
<path d="M105.286 71.8065C105.747 73.3638 105.243 74.8852 104.161 75.2051C103.079 75.5245 101.829 74.5211 101.369 72.9638C100.909 71.4065 101.413 69.885 102.495 69.5656C103.577 69.2458 104.826 70.2491 105.286 71.8065Z" fill="#252936"/>
<path d="M117.943 67.5371C118.403 69.0944 117.899 70.6158 116.817 70.9357C115.736 71.2551 114.486 70.2517 114.025 68.6944C113.565 67.1371 114.069 65.6156 115.151 65.2963C116.233 64.9764 117.483 65.9797 117.943 67.5371Z" fill="#252936"/>
<path d="M102.656 65.5053C101.671 65.7404 100.719 66.1248 99.8335 66.6163C99.357 66.8805 99.1927 67.6015 99.499 68.0493C99.8309 68.5336 100.422 68.6667 100.932 68.3838C101.152 68.2621 101.377 68.1528 101.605 68.0473C102.136 67.8205 102.683 67.6348 103.246 67.5006C103.776 67.3742 104.125 66.7204 103.949 66.208C103.757 65.6514 103.224 65.3695 102.656 65.5053" fill="#252936"/>
<path d="M117.481 62.0067C117.262 61.8189 117.033 61.7518 116.749 61.7242C115.49 61.6025 114.175 61.7981 113.004 62.2772C112.741 62.3848 112.525 62.5195 112.385 62.7775C112.263 63.0022 112.216 63.3242 112.301 63.5697C112.47 64.0587 113.054 64.493 113.593 64.2725C114.078 64.0743 114.581 63.9359 115.095 63.8433C115.657 63.7689 116.222 63.7507 116.787 63.8054C117.038 63.8293 117.361 63.653 117.526 63.4777C117.697 63.2951 117.825 62.9997 117.808 62.7458C117.791 62.4733 117.694 62.1903 117.481 62.0067" fill="#252936"/>
<path d="M126.467 32.0028C126.334 31.6965 125.886 31.9607 126.018 32.2655C126.984 34.5048 127.463 36.9302 127.438 39.3677C127.435 39.7026 127.956 39.7026 127.959 39.3677C127.985 36.833 127.471 34.3295 126.467 32.0028Z" fill="#252936"/>
<path d="M128.849 36.4882C128.627 37.4031 128.405 38.3175 128.183 39.232C128.105 39.5571 128.606 39.6959 128.685 39.3703C128.907 38.4559 129.128 37.5409 129.351 36.6265C129.429 36.3014 128.928 36.1625 128.849 36.4882Z" fill="#252936"/>
<path d="M125.314 190.54V193.864H78.9063L43.5308 174.634V171.643L79.5825 190.54H125.314" fill="#7E8182"/>
<path d="M125.314 190.54H79.5825L43.5308 171.643H89.2625L125.314 190.54" fill="#AAACAB"/>
<path d="M84.4225 189.087H78.7908L74.3513 186.76H79.9825L84.4225 189.087Z" fill="#7E8182"/>
<path d="M78.4708 185.978H72.8392L68.3997 183.65H74.0313L78.4708 185.978Z" fill="#7E8182"/>
<path d="M73.4353 182.99H67.8036L63.3641 180.663H68.9958L73.4353 182.99Z" fill="#7E8182"/>
<path d="M67.4838 179.881H61.8526L57.4126 177.554H63.0443L67.4838 179.881Z" fill="#7E8182"/>
<path d="M91.2193 188.635H85.5871L81.1476 186.308H86.7793L91.2193 188.635Z" fill="#7E8182"/>
<path d="M86.1832 185.648H80.5521L76.1121 183.32H81.7437L86.1832 185.648Z" fill="#7E8182"/>
<path d="M80.2321 182.538H74.6004L70.1609 180.211H75.7921L80.2321 182.538Z" fill="#7E8182"/>
<path d="M92.4479 185.093H86.8167L82.3767 182.766H88.0084L92.4479 185.093" fill="#7E8182"/>
<path d="M87.4124 182.106H81.7807L77.3412 179.778H82.9729L87.4124 182.106Z" fill="#7E8182"/>
<path d="M81.4612 178.997H75.8295L71.3895 176.669H77.0217L81.4612 178.997Z" fill="#7E8182"/>
<path d="M113.193 189.368H107.561L103.122 187.041H108.754L113.193 189.368Z" fill="#7E8182"/>
<path d="M107.242 186.259H101.61L97.1704 183.932H102.802L107.242 186.259" fill="#7E8182"/>
<path d="M102.206 183.272H96.5743L92.1348 180.944H97.7664L102.206 183.272Z" fill="#7E8182"/>
<path d="M96.2548 180.162H90.6231L86.1831 177.835H91.8153L96.2548 180.162" fill="#7E8182"/>
<path d="M119.99 188.916H114.358L109.919 186.589H115.55L119.99 188.916Z" fill="#7E8182"/>
<path d="M114.954 185.929H109.323L104.883 183.602H110.515L114.954 185.929Z" fill="#7E8182"/>
<path d="M109.003 182.82H103.371L98.9316 180.492H104.563L109.003 182.82Z" fill="#7E8182"/>
<path d="M154.531 206.511H108.799L85.4487 194.246H131.181L154.531 206.511" fill="#CCDDD8"/>
<path d="M122.814 205.038H109.505L102.709 201.469H116.018L122.814 205.038Z" fill="#55C6C2"/>
<path d="M126.97 204.814C126.889 204.814 126.806 204.795 126.729 204.755L110.947 196.465C110.692 196.332 110.594 196.017 110.728 195.763C110.862 195.508 111.176 195.412 111.43 195.544L127.212 203.833C127.467 203.966 127.564 204.281 127.431 204.536C127.338 204.712 127.157 204.814 126.97 204.814" fill="#AAACAB"/>
<path d="M132.279 204.509C132.198 204.509 132.115 204.489 132.038 204.449L116.256 196.16C116.001 196.026 115.904 195.712 116.037 195.457C116.171 195.203 116.485 195.107 116.74 195.239L132.521 203.528C132.776 203.661 132.874 203.975 132.74 204.23C132.647 204.408 132.466 204.509 132.279 204.509" fill="#AAACAB"/>
<path d="M139.498 204.967C139.417 204.967 139.333 204.947 139.256 204.907L123.474 196.618C123.22 196.485 123.122 196.171 123.255 195.916C123.39 195.661 123.704 195.565 123.958 195.697L139.74 203.986C139.994 204.119 140.092 204.434 139.959 204.688C139.865 204.865 139.684 204.967 139.498 204.967Z" fill="#AAACAB"/>
<path d="M144.807 204.661C144.726 204.661 144.643 204.642 144.566 204.602L128.784 196.313C128.529 196.179 128.431 195.865 128.565 195.61C128.699 195.356 129.013 195.26 129.267 195.392L145.049 203.68C145.304 203.814 145.401 204.128 145.268 204.383C145.175 204.56 144.994 204.661 144.807 204.661" fill="#AAACAB"/>
<path d="M192.49 66.6573L201.39 62.0238C204.939 62.9539 208.794 62.9013 212.539 61.6639C222.881 58.2475 228.494 47.095 225.077 36.7538C221.661 26.4127 210.508 20.7992 200.168 24.2156C189.832 27.6304 184.218 38.7829 187.635 49.1241C188.623 52.1149 190.263 54.7147 192.34 56.8109L192.49 66.6573Z" fill="#9EDED6"/>
<path d="M211.913 56.6248V57.9158H202.128V54.2258L211.913 56.6248Z" fill="#7E8182"/>
<path d="M203.284 57.9157H210.8C210.8 57.9157 210.622 59.4705 207.018 59.4705C203.419 59.4705 203.284 57.9157 203.284 57.9157" fill="#AAACAB"/>
<path d="M211.913 53.1122V56.6248L202.128 54.2258V53.1122H202.829H211.433H211.913" fill="#AAACAB"/>
<path d="M218.67 37.6356C218.67 41.8873 216.371 45.6064 212.945 47.6074L211.433 53.1122H202.829L201.321 47.6074C197.895 45.6064 195.592 41.8873 195.592 37.6356C195.592 31.2627 200.76 26.0986 207.133 26.0986C213.506 26.0986 218.67 31.2627 218.67 37.6356Z" fill="#55C6C2"/>
<path d="M202.499 40.3117C202.456 40.036 202.038 40.1531 202.08 40.4267C202.726 44.5614 203.37 48.6966 204.015 52.8313C204.057 53.1069 204.476 52.9899 204.433 52.7158C203.788 48.5811 203.144 44.4464 202.499 40.3117" fill="white"/>
<path d="M211.651 39.8914C210.955 44.2441 210.259 48.5967 209.563 52.9498C209.519 53.2229 209.938 53.341 209.982 53.0653C210.678 48.7122 211.374 44.3595 212.069 40.0069C212.113 39.7333 211.695 39.6158 211.651 39.8914Z" fill="white"/>
<path d="M208.427 42.4054C207.958 41.3692 207.805 40.1204 208.084 39.0109C208.147 38.7591 208.264 38.46 208.538 38.3773C208.804 38.2962 208.984 38.5235 209.08 38.742C209.277 39.1898 209.266 39.7562 209.228 40.2348C209.165 41.0275 208.898 41.8103 208.463 42.4803C208.452 42.4558 208.437 42.4309 208.427 42.4054V42.4054ZM204.644 39.7869C204.684 39.5092 204.738 39.1768 204.958 38.9797C205.222 38.7409 205.522 38.8964 205.638 39.1934C205.745 39.4676 205.703 39.7994 205.694 40.0865C205.684 40.3919 205.673 40.6982 205.643 41.0025C205.587 41.5768 205.435 42.2197 205.134 42.7471C204.677 41.8415 204.5 40.7893 204.644 39.7869V39.7869ZM212.825 43.0358C212.499 43.9357 211.49 44.5437 210.54 44.3617C209.737 44.2077 209.125 43.6126 208.706 42.9271C209.098 42.3638 209.374 41.7089 209.523 41.1029C209.681 40.4626 209.72 39.7947 209.628 39.1419C209.558 38.6447 209.324 38.0101 208.751 37.9326C208.08 37.8421 207.736 38.5172 207.627 39.0702C207.487 39.7838 207.488 40.5188 207.616 41.2345C207.713 41.7848 207.901 42.3539 208.173 42.8761C208.117 42.9469 208.06 43.0181 207.998 43.0852C207.626 43.4915 207.154 43.8691 206.581 43.9008C206.032 43.931 205.651 43.5887 205.371 43.1643C205.66 42.7471 205.862 42.254 205.965 41.7635C206.118 41.0421 206.182 40.2395 206.133 39.504C206.095 38.9318 205.698 38.2598 205.027 38.4527C204.338 38.6509 204.222 39.491 204.177 40.0954C204.125 40.7867 204.212 41.4946 204.423 42.1547C204.529 42.485 204.668 42.8324 204.847 43.1539C204.565 43.4795 204.199 43.7182 203.725 43.7973C202.418 44.0147 201.926 42.6764 201.672 41.66C201.604 41.389 201.185 41.5039 201.253 41.7755C201.535 42.9032 202.084 44.2582 203.461 44.253C204.123 44.2504 204.665 43.9591 205.08 43.5227C205.185 43.6662 205.301 43.7994 205.43 43.9149C205.931 44.3606 206.607 44.4407 207.223 44.1921C207.683 44.0069 208.082 43.6875 208.418 43.298C208.819 43.9076 209.358 44.4111 210.044 44.6712C211.326 45.1565 212.784 44.4189 213.244 43.1513C213.339 42.8881 212.92 42.7747 212.825 43.0358" fill="white"/>
<path d="M81.1772 69.5728L71.918 71.009C69.762 73.6716 66.8335 75.7637 63.3303 76.9044C53.6602 80.0528 43.2691 74.7665 40.1201 65.0964C36.9716 55.4268 42.2585 45.0352 51.9281 41.8862C61.593 38.7398 71.9846 44.0261 75.1331 53.6957C76.0439 56.4931 76.2478 59.3555 75.8441 62.0816L81.1772 69.5728" fill="white"/>
<path d="M72.2608 53.4877L55.0193 70.7291L45.6457 61.3497L50.1903 56.8052L55.0193 61.6343L67.7105 48.9426L72.2608 53.4877" fill="#55C6C2"/>
<path d="M180.061 110.559L168.316 123.74L165.315 131.839L164.701 124.244L163.468 114.99L163.593 113.279L164.295 103.609C162.345 103.792 160.446 103.74 158.662 103.417C151.64 102.169 146.282 96.8064 145.611 85.2018C145.201 78.1325 146.074 72.8066 147.255 68.9679C148.987 63.3289 151.395 60.9108 151.395 60.9108C151.395 60.9108 160.181 75.6258 171.821 77.2534C171.821 77.2534 173.954 72.2241 177.278 73.7065C180.607 75.1889 180.607 85.1966 175.332 86.5074C174.641 93.4306 175.65 100.525 178.25 106.981C178.75 108.213 179.327 109.451 180.061 110.559Z" fill="#F68164"/>
<path d="M168.576 81.4463C171.176 81.4463 173.283 83.553 173.283 86.1537C173.283 88.7545 171.176 90.8611 168.576 90.8611C165.975 90.8611 163.868 88.7545 163.868 86.1537C163.868 83.553 165.975 81.4463 168.576 81.4463Z" fill="#F36254"/>
<path d="M170.157 102.45L163.926 108.671L164.295 103.61C166.209 103.438 168.18 103.038 170.157 102.45Z" fill="#252936"/>
<path d="M163.926 108.671L163.593 113.279C163.593 113.279 156.842 116.307 153.746 123.459C153.075 121.285 153.148 118.908 153.632 116.676C154.178 114.179 155.208 111.823 156.248 109.498C157.138 107.506 158.043 105.503 158.662 103.417C160.446 103.74 162.345 103.792 164.295 103.609L163.926 108.671" fill="#252936"/>
<path d="M152.769 79.4906L155.447 90.7727C155.447 90.7727 150.781 92.1823 150.168 91.0588C149.554 89.9405 152.769 79.4906 152.769 79.4906Z" fill="#F36254"/>
<path d="M218.395 123.638C217.889 116.103 214.243 109.071 210.037 102.762C207.172 98.4693 204.004 94.3554 201.185 90.0402C203.19 92.0241 205.227 93.9783 207.181 96.0064C211.311 100.291 215.222 105.076 217.211 110.766C218.649 114.881 219.004 119.33 218.395 123.638ZM161.289 73.0152C159.827 71.9494 158.493 70.7135 157.232 69.4183C155.997 68.1502 154.783 66.8363 153.768 65.3814C153.004 64.2855 152.359 63.0927 151.974 61.8179C153.769 64.5351 159.608 72.6427 167.32 75.9587C165.15 75.4027 163.105 74.3379 161.289 73.0152V73.0152ZM218.419 113.016C217.025 107.312 213.639 102.376 209.782 98.0428C206.66 94.5354 203.19 91.363 199.9 88.0184C198.869 86.3399 197.904 84.6223 197.044 82.845C193.819 76.1922 192.128 68.8742 188.81 62.2735C185.486 55.6671 179.915 49.5194 172.612 48.3803C161.887 46.7054 151.65 56.2137 140.982 54.2112C140.56 59.6363 142.798 65.2124 146.854 68.843L147.255 68.9679C148.741 64.1304 150.72 61.6686 151.254 61.0652C151.895 64.2594 154.114 66.8867 156.308 69.2071C158.875 71.9208 161.764 74.443 165.273 75.8432C166.787 76.4476 168.396 76.8211 170.023 76.8877C170.615 77.0401 171.213 77.1686 171.821 77.2534C171.821 77.2534 173.954 72.224 177.278 73.7064C180.607 75.1889 180.607 85.1966 175.332 86.5074C174.641 93.4306 175.65 100.525 178.251 106.981C178.75 108.213 179.327 109.451 180.061 110.559C180.513 111.251 181.029 111.89 181.626 112.452V112.457C181.84 112.655 182.063 112.847 182.302 113.03C186.875 116.52 193.611 114.429 198.995 116.453C203.978 118.325 207.067 123.568 207.879 128.832C208.695 134.096 207.634 139.448 206.584 144.671L206.677 144.701C206.781 144.39 206.88 144.072 206.978 143.76C213.967 141.287 218.107 133.71 218.439 126.256C219.444 121.918 219.478 117.346 218.419 113.016" fill="#252936"/>
<path d="M150.806 79.5889C150.806 81.2128 149.891 82.5293 148.764 82.5293C147.635 82.5293 146.722 81.2128 146.722 79.5889C146.722 77.965 147.635 76.6485 148.764 76.6485C149.891 76.6485 150.806 77.965 150.806 79.5889Z" fill="#252936"/>
<path d="M161.392 79.167C161.392 80.7909 160.477 82.1074 159.35 82.1074C158.222 82.1074 157.307 80.7909 157.307 79.167C157.307 77.5436 158.222 76.2271 159.35 76.2271C160.477 76.2271 161.392 77.5436 161.392 79.167Z" fill="#252936"/>
<path d="M150.069 72.8005C149.058 72.7469 148.035 72.8462 147.047 73.0668C146.515 73.1848 146.154 73.8298 146.321 74.3464C146.502 74.9045 147.031 75.1999 147.6 75.073C147.845 75.0184 148.092 74.9778 148.341 74.9409C148.914 74.8738 149.492 74.8509 150.069 74.8811C150.613 74.9102 151.133 74.3822 151.11 73.8408C151.083 73.253 150.652 72.8322 150.069 72.8005" fill="#252936"/>
<path d="M162.515 73.7325C162.359 73.4907 162.159 73.3617 161.894 73.2545C160.72 72.7807 159.404 72.596 158.145 72.7235C157.863 72.7521 157.618 72.8207 157.41 73.0283C157.229 73.2088 157.093 73.5047 157.105 73.7638C157.128 74.2803 157.565 74.8628 158.145 74.8041C158.666 74.7515 159.187 74.7609 159.707 74.8181C160.267 74.9055 160.814 75.0485 161.34 75.2607C161.574 75.3549 161.935 75.2774 162.142 75.1557C162.358 75.0298 162.564 74.7822 162.62 74.5341C162.681 74.2678 162.668 73.9692 162.515 73.7325" fill="#252936"/>
<path d="M163.304 94.5906C164.058 96.4543 163.349 98.499 161.721 99.1585C160.092 99.8176 158.16 98.8407 157.406 96.9775C156.651 95.1138 157.361 93.0691 158.99 92.4101C160.618 91.7511 162.55 92.7274 163.304 94.5906" fill="#E85B41"/>
<path d="M163.868 92.0002C163.868 92.0002 165.424 96.4475 160.94 97.9295C157.288 99.1367 155.754 96.7383 155.343 95.917L163.868 92.0002" fill="white"/>
<path d="M206.584 144.671L206.677 144.701C205.231 149.19 203.588 153.695 201.928 157.945V157.95C196.799 171.078 191.514 181.788 191.353 182.106C186.287 175.11 176.851 170.465 173.788 169.086C173.159 168.805 172.799 168.66 172.799 168.66L170.87 174.444C171.031 174.595 171.197 174.745 171.353 174.891L153.861 177.222V170.013C153.861 170.013 153.429 169.076 152.79 167.588C151.915 165.56 150.651 162.502 149.595 159.422C148.435 156.041 147.525 152.634 147.634 150.538C147.926 145.138 159.754 124.317 159.754 124.317C159.77 127.318 160.435 129.742 160.435 129.742C160.487 129.42 160.607 129.076 160.784 128.728C160.836 128.952 162.511 135.859 165.637 141.092L172.295 129.742C172.57 130.455 172.841 131.251 173.085 132.125C173.085 132.125 180.472 120.182 181.626 112.457C181.84 112.655 182.063 112.847 182.302 113.03C186.875 116.52 193.611 114.429 198.995 116.453C203.978 118.325 207.067 123.568 207.879 128.832C208.695 134.096 207.634 139.448 206.584 144.671" fill="#55C6C2"/>
<path d="M201.928 157.95L205.044 185.336H191.01L192.175 183.313C191.92 182.902 191.644 182.501 191.353 182.106C191.514 181.788 196.799 171.078 201.928 157.95Z" fill="#55C6C2"/>
<path d="M191.353 182.106C191.644 182.501 191.92 182.902 192.175 183.313L191.01 185.336L185.137 195.557C185.137 195.557 183.072 185.846 171.353 174.891C171.197 174.746 171.031 174.595 170.87 174.444L172.799 168.66C172.799 168.66 173.158 168.805 173.788 169.086C176.851 170.465 186.287 175.11 191.353 182.106Z" fill="#49C2B7"/>
<path d="M185.137 195.557C185.137 195.557 171.702 195.796 134.142 193.627C134.142 193.627 125.367 199.703 121.804 199.317C118.235 198.932 111.198 192.327 109.46 189.581C107.728 186.834 112.259 182.735 112.259 182.735C112.259 182.735 112.306 180.665 115.151 179.459C116.421 178.922 119.9 178.996 123.375 179.24C127.702 179.552 132.019 180.134 132.019 180.134L142.47 178.741L153.861 177.222L171.353 174.891C183.072 185.846 185.137 195.557 185.137 195.557" fill="#F68164"/>
<path d="M181.626 112.452V112.458C180.472 120.182 173.085 132.125 173.085 132.125C172.841 131.251 172.571 130.455 172.295 129.742C170.511 125.124 168.316 123.74 168.316 123.74L180.061 110.559C180.513 111.251 181.029 111.89 181.626 112.452Z" fill="white"/>
<path d="M172.295 129.742L165.637 141.092C162.511 135.859 160.836 128.952 160.784 128.728C160.784 128.723 160.784 128.723 160.784 128.723C161.829 126.611 164.701 124.244 164.701 124.244L165.315 131.839L168.316 123.74C168.316 123.74 170.511 125.124 172.295 129.742" fill="#CFEEE3"/>
<path d="M165.309 166.548V158.741H158.786V166.548H165.309ZM159.733 157.143H167.848L168.17 173.767H156.171L155.926 157.143H159.733" fill="white"/>
<path d="M165.309 158.741V166.548H158.786V158.741H165.309Z" fill="#55C6C2"/>
<path d="M163.468 114.99L164.701 124.244C164.701 124.244 161.829 126.611 160.784 128.723C160.784 128.723 160.784 128.723 160.784 128.728C160.607 129.076 160.487 129.42 160.435 129.742C160.435 129.742 159.77 127.318 159.754 124.317C159.738 121.129 160.451 117.28 163.468 114.99Z" fill="white"/>
<path d="M161.825 154.61L163.827 157.143H159.733L161.825 154.61Z" fill="#AAACAB"/>
<path d="M153.746 123.459C156.842 116.307 163.593 113.279 163.593 113.279L163.468 114.99C160.451 117.28 159.738 121.129 159.754 124.317C159.754 124.317 147.926 145.138 147.634 150.538C147.525 152.634 148.435 156.041 149.595 159.422L148.888 159.599L143.811 157.134L143.973 156.806C143.973 156.806 150.433 133.908 153.034 125.378C153.236 124.707 153.476 124.067 153.746 123.459" fill="#55C6C2"/>
<path d="M153.861 170.013V177.222L142.47 178.741L107.8 178.668C101.933 181.192 98.8993 181.326 96.6314 180.198C95.7055 180.261 92.233 180.644 91.3071 180.701C91.2187 181.7 90.9118 182.589 90.0848 182.589C88.207 182.589 86.1108 178.397 86.1108 178.397C86.1108 178.397 85.5335 182.589 83.6505 181.581C81.7728 180.566 82.2773 174.829 82.2773 174.829C82.2773 174.829 78.0121 179.011 77.4347 177.435C76.8573 175.854 79.6766 168.348 86.6882 167.697C93.6998 167.047 109.533 169.866 109.533 169.866L140.935 164.613L152.79 167.588C153.429 169.076 153.861 170.013 153.861 170.013" fill="#F68164"/>
<path d="M152.79 167.588L140.935 164.613C140.207 158.782 142.142 156.322 142.142 156.322L143.811 157.134L149.595 159.422C150.651 162.502 151.915 165.56 152.79 167.588" fill="#49C2B7"/>
<path d="M128.928 167.528C129.671 168.038 129.874 169.057 129.421 169.837C125.754 169.364 124.88 167.694 124.88 167.694C125.182 167.185 125.78 166.581 126.369 166.55C127.086 166.519 128.022 166.909 128.928 167.528" fill="#F2564A"/>
<path d="M129.421 169.837L127.206 173.661C124.288 173.239 122.728 171.309 122.728 171.309L124.88 167.694C124.88 167.694 125.754 169.364 129.421 169.837Z" fill="#F5776B"/>
<path d="M127.205 173.66L123.752 179.621L117.854 179.497L122.727 171.309C122.727 171.309 124.288 173.239 127.205 173.66Z" fill="#55C6C2"/>
<path d="M184.037 132.606C182.609 137.102 181.182 141.597 179.754 146.092C178.333 150.567 176.912 155.042 175.491 159.517C174.685 162.053 173.88 164.589 173.075 167.126C172.973 167.446 173.475 167.582 173.576 167.264C175.004 162.769 176.432 158.273 177.859 153.778C179.28 149.303 180.701 144.829 182.122 140.354C182.927 137.817 183.733 135.281 184.539 132.745C184.64 132.425 184.138 132.288 184.037 132.606Z" fill="#252936"/>
<path d="M201.67 158.689C198.68 164.637 195.932 170.705 193.436 176.876C192.732 178.617 192.049 180.365 191.385 182.122C191.266 182.435 191.769 182.571 191.886 182.259C194.224 176.075 196.812 169.986 199.646 164.012C200.451 162.316 201.275 160.629 202.119 158.952C202.269 158.654 201.82 158.39 201.67 158.689Z" fill="#252936"/>
<path d="M159.046 124.92C156.572 129.506 154.038 134.065 151.637 138.689C149.47 142.861 147.557 147.337 147.574 152.12C147.583 154.607 148.124 157.095 149.358 159.268C149.523 159.559 149.973 159.297 149.807 159.006C147.562 155.052 147.764 150.234 149.059 146.005C149.757 143.724 150.754 141.55 151.839 139.431C152.972 137.216 154.179 135.038 155.36 132.849C156.738 130.294 158.117 127.738 159.494 125.183C159.654 124.888 159.205 124.626 159.046 124.92Z" fill="#252936"/>
<path d="M172.27 130.35C169.459 136.707 166.649 143.063 163.839 149.421C163.154 150.969 162.47 152.518 161.785 154.067C160.732 147.731 160.282 141.298 160.457 134.878C160.509 132.973 160.616 131.068 160.775 129.169C160.804 128.835 160.283 128.837 160.255 129.169C159.688 135.924 159.801 142.733 160.6 149.465C160.819 151.307 161.09 153.143 161.407 154.971C161.405 155.018 161.417 155.062 161.438 155.102C161.465 155.187 161.525 155.232 161.596 155.246C161.7 155.287 161.819 155.267 161.879 155.132C161.881 155.128 161.883 155.124 161.885 155.12C161.901 155.094 161.915 155.066 161.921 155.036C164.718 148.711 167.514 142.386 170.31 136.061C171.113 134.245 171.916 132.428 172.719 130.612C172.853 130.309 172.405 130.044 172.27 130.35" fill="#252936"/>
<path d="M153.493 177.346C149.806 177.707 146.119 178.069 142.432 178.43C142.102 178.463 142.099 178.983 142.432 178.95C146.119 178.589 149.806 178.227 153.493 177.866C153.824 177.834 153.827 177.313 153.493 177.346Z" fill="#252936"/>
<path d="M102.059 178.312C98.9571 179.294 95.7535 179.946 92.5124 180.235C92.1405 180.267 91.7686 180.296 91.3962 180.32C91.0841 180.34 90.76 180.376 90.45 180.312C90.2133 180.263 89.9486 180.15 89.9647 179.864C89.9845 179.508 90.4365 179.177 90.67 178.955C91.7369 177.944 92.8812 177.017 94.0916 176.184C95.4606 175.241 96.9108 174.421 98.4208 173.728C98.7246 173.588 98.4609 173.139 98.1581 173.278C95.2208 174.629 92.5129 176.466 90.179 178.704C89.7421 179.124 89.1694 179.746 89.5892 180.378C89.8898 180.831 90.5322 180.882 91.0237 180.862C92.7829 180.789 94.5472 180.562 96.2809 180.261C98.2835 179.913 100.26 179.427 102.197 178.813C102.515 178.713 102.379 178.21 102.059 178.312" fill="#252936"/>
<path d="M86.3752 178.332C85.6912 176.035 85.6818 173.59 86.3502 171.289C86.4439 170.967 85.9419 170.829 85.8488 171.151C85.1555 173.538 85.1638 176.088 85.8738 178.47C85.969 178.79 86.4709 178.654 86.3752 178.332" fill="#252936"/>
<path d="M84.4173 170.448C84.2846 170.368 84.1468 170.43 84.0615 170.541C83.093 171.806 82.4324 173.295 82.1411 174.861C82.0802 175.189 82.5817 175.328 82.6425 174.999C82.927 173.47 83.5653 172.039 84.5109 170.804C84.5967 170.691 84.5276 170.513 84.4173 170.448" fill="#252936"/>
<path d="M164.489 124.228C162.987 125.715 161.576 127.293 160.265 128.952C160.059 129.211 160.425 129.582 160.633 129.32C161.944 127.661 163.354 126.083 164.857 124.596C165.095 124.36 164.728 123.992 164.489 124.228" fill="#252936"/>
<path d="M173.166 131.59C172.284 128.621 170.75 125.877 168.688 123.567C168.464 123.316 168.097 123.685 168.32 123.934C170.322 126.177 171.808 128.846 172.665 131.728C172.759 132.048 173.262 131.913 173.166 131.59" fill="#252936"/>
<path d="M165.729 132.272C165.715 131.938 165.195 131.936 165.209 132.272C165.308 134.578 165.406 136.884 165.505 139.189C165.519 139.522 166.039 139.524 166.025 139.189C165.926 136.884 165.828 134.578 165.729 132.272Z" fill="#252936"/>
<path d="M167.612 133.599C167.468 133.303 167.08 133.141 166.772 133.261C166.679 133.298 166.596 133.354 166.523 133.422C166.513 133.429 166.502 133.432 166.495 133.441C166.48 133.458 166.472 133.48 166.459 133.498C166.435 133.529 166.403 133.553 166.385 133.588C166.375 133.607 166.375 133.628 166.367 133.648C166.36 133.665 166.357 133.683 166.351 133.7C166.33 133.764 166.316 133.828 166.314 133.895C166.314 133.903 166.31 133.909 166.31 133.916C166.31 133.935 166.318 133.951 166.32 133.97C166.323 134.013 166.318 134.056 166.33 134.098C166.335 134.114 166.346 134.127 166.353 134.143C166.363 134.174 166.38 134.201 166.395 134.23C166.419 134.276 166.443 134.32 166.476 134.36C166.484 134.369 166.487 134.381 166.494 134.389C166.512 134.408 166.538 134.419 166.558 134.436C166.584 134.458 166.604 134.487 166.633 134.505C166.644 134.513 166.66 134.513 166.671 134.519C166.705 134.536 166.741 134.544 166.777 134.556C166.82 134.571 166.86 134.59 166.906 134.595C167.07 134.619 167.242 134.589 167.376 134.492C167.514 134.394 167.616 134.258 167.661 134.094C167.708 133.927 167.687 133.754 167.612 133.599" fill="#252936"/>
<path d="M34.9488 179.64L33.4039 192.374L60.0097 190.735V196.041L21.2583 200.379L10.7515 192.374L22.7359 164.01L27.0426 153.815L37.742 156.614L36.4 167.697L34.9488 179.64" fill="#7E8182"/>
<path d="M49.1645 83.3969L67.1462 177.097H59.4323L41.3571 83.3969H49.1645Z" fill="#7E8182"/>
<path d="M60.0097 190.735L33.4039 192.374L34.9488 179.64L60.0097 190.735Z" fill="#AAACAB"/>
<path d="M41.357 83.3969L59.4323 177.097L36.4 167.697L37.742 156.613L27.0426 153.815L22.7359 164.01L20.8268 163.199L0 83.3969H41.357Z" fill="#AAACAB"/>
<path d="M55.6368 156.276C54.6396 150.41 53.616 144.548 52.5663 138.691C51.5115 132.804 50.4301 126.923 49.3227 121.046C48.2205 115.199 47.0917 109.355 45.9375 103.518C44.7833 97.6803 43.6025 91.8484 42.3963 86.0211C42.2455 85.2929 42.0941 84.5647 41.9427 83.8365C41.8741 83.5088 41.3727 83.6472 41.4408 83.9743C42.6538 89.8005 43.8408 95.6315 45.0018 101.468C46.1627 107.304 47.2977 113.145 48.4061 118.991C49.5208 124.867 50.6085 130.747 51.6701 136.633C52.7265 142.489 53.7564 148.35 54.7603 154.215C55.7642 160.08 56.7416 165.95 57.6929 171.824C57.812 172.558 57.9306 173.292 58.0487 174.027C58.1018 174.356 58.6032 174.217 58.5501 173.889C57.605 168.014 56.6344 162.143 55.6368 156.276" fill="#252936"/>
<path d="M34.5297 156.391C32.9473 162.031 31.3014 167.654 29.5907 173.257C27.8864 178.84 26.1185 184.404 24.2872 189.946C23.2514 193.081 22.1948 196.21 21.119 199.331C21.0094 199.648 21.5119 199.785 21.6202 199.469C23.5295 193.931 25.3761 188.37 27.1584 182.79C28.9343 177.23 30.6465 171.649 32.2949 166.049C33.2275 162.882 34.1392 159.708 35.0315 156.529C35.1215 156.206 34.6199 156.068 34.5297 156.391" fill="#252936"/>
</svg>
